<?xml version="1.0" encoding="UTF-8"?>
<svg id="Layer_2" data-name="Layer 2" xmlns="http://www.w3.org/2000/svg" viewBox="0 0 56.13 15.35">
  <defs>
    <style>
      .cls-1 {
        fill: #00a599;
      }
    </style>
  </defs>
  <g id="Layer_1-2" data-name="Layer 1">
    <g>
      <g>
        <path class="cls-1" d="M0,1.84H2.2v6.57l2.26-3.12h2.46l-2.56,3.29,2.7,3.7h-2.59l-2.27-3.37v3.37H0V1.84Z"/>
        <path class="cls-1" d="M7.09,8.78c0-2.07,1.64-3.64,3.83-3.64s3.83,1.57,3.83,3.64-1.64,3.67-3.83,3.67-3.83-1.6-3.83-3.67Zm5.41,0c0-.98-.65-1.64-1.58-1.64s-1.58,.68-1.58,1.65,.65,1.65,1.58,1.65,1.58-.68,1.58-1.67Z"/>
        <path class="cls-1" d="M16.69,7.17h-1.58v-1.87h1.58V2.4h2.2v2.89h1.58v1.87h-1.58v5.12h-2.2V7.17Z"/>
        <path class="cls-1" d="M21.35,3.12c0-.68,.5-1.21,1.19-1.21s1.18,.53,1.18,1.21-.49,1.21-1.18,1.21-1.19-.53-1.19-1.21Zm.09,2.17h2.2v6.99h-2.2V5.3Z"/>
        <path class="cls-1" d="M25.19,5.3h2.2v.56c.49-.45,1.18-.7,1.96-.7,1.54,0,2.66,1.22,2.66,2.66v4.47h-2.2v-3.98c0-.73-.5-1.22-1.19-1.22s-1.22,.49-1.22,1.22v3.98h-2.2V5.3Z"/>
        <path class="cls-1" d="M33.33,3.12c0-.68,.5-1.21,1.19-1.21s1.18,.53,1.18,1.21-.49,1.21-1.18,1.21-1.19-.53-1.19-1.21Zm.09,2.17h2.2v6.99h-2.2V5.3Z"/>
      </g>
      <g>
        <polygon class="cls-1" points="54.66 6.39 48.64 12.41 46.47 10.24 45.01 11.71 48.64 15.35 56.13 7.86 54.66 6.39"/>
        <polygon class="cls-1" points="50.79 5.1 52.26 3.63 48.62 0 46.02 2.61 46.02 1.34 43.94 1.34 43.94 4.69 41.14 7.49 42.61 8.96 48.62 2.94 50.79 5.1"/>
        <rect class="cls-1" x="46.88" y="8.06" width="1.38" height="1.38"/>
        <rect class="cls-1" x="49.03" y="5.91" width="1.38" height="1.38"/>
        <rect class="cls-1" x="46.88" y="5.91" width="1.38" height="1.38"/>
        <rect class="cls-1" x="49.03" y="8.06" width="1.38" height="1.38"/>
      </g>
    </g>
  </g>
</svg>